<?xml version="1.0" standalone="no"?>
<!DOCTYPE svg PUBLIC "-//W3C//DTD SVG 20010904//EN"
 "http://www.w3.org/TR/2001/REC-SVG-20010904/DTD/svg10.dtd">
<svg version="1.0" xmlns="http://www.w3.org/2000/svg"
 width="512.000000pt" height="512.000000pt" viewBox="0 0 512.000000 512.000000"
 preserveAspectRatio="xMidYMid meet">
<metadata>
Created by potrace 1.15, written by Peter Selinger 2001-2017
</metadata>
<g transform="translate(0.000000,512.000000) scale(0.100000,-0.100000)"
fill="#000000" stroke="none">
<path d="M2540 4179 c-578 -48 -1084 -407 -1338 -949 -96 -204 -139 -380 -149
-605 -35 -825 564 -1544 1392 -1671 119 -18 355 -18 480 1 235 35 450 118 682
265 51 31 58 33 175 38 157 6 167 14 191 147 21 117 85 546 94 626 7 72 -5 89
-67 89 -48 0 -64 -19 -94 -108 -144 -422 -516 -740 -956 -816 -348 -60 -700
42 -960 278 -353 321 -527 781 -489 1294 30 410 186 714 487 955 189 152 402
232 648 244 297 14 552 -70 792 -263 136 -109 224 -223 269 -348 11 -33 52
-264 53 -299 0 -4 17 -15 37 -24 44 -18 117 -11 145 14 27 24 24 65 -32 495
-68 523 -70 537 -87 554 -17 16 -85 19 -114 3 -11 -5 -34 -40 -51 -76 -17 -36
-38 -67 -45 -70 -8 -3 -69 22 -136 55 -291 145 -586 200 -927 171z"/>
</g>
</svg>
